Genre: Action | Crime | Drama
Language:English
 
http://www.imdb.com/title/tt1524137/

Source:Lumix/26k.Inspiral Thanks!

Format : AVI
Format/Info : Audio Video Interleave
File size : 1.02 GiB
Duration : 1h 42mn
Overall bit rate : 1 429 Kbps

Video
ID : 0
Format : MPEG-4 Visual
Format profile : Advanced Simple@L5
Format settings, BVOP : Yes
Format settings, QPel : No
Format settings, GMC : No warppoints
Format settings, Matrix : Default (H.263)
Codec ID : XVID
Codec ID/Hint : XviD
Duration : 1h 42mn
Bit rate : 1 260 Kbps
Width : 640 pixels
Height : 272 pixels
Display aspect ratio : 2.35:1
Frame rate : 25.000 fps
Color space : YUV
Chroma subsampling : 4:2:0
Bit depth : 8 bits
Scan type : Progressive
Bits/(Pixel*Frame) : 0.289
Stream size : 924 MiB (88%)
Writing library : XviD 1.2.1 (UTC 2008-12-04)

Audio
ID : 1
Format : AC-3
Format/Info : Audio Coding 3
Mode extension : CM (complete main)
Codec ID : 2000
Duration : 1h 42mn
Bit rate mode : Constant
Bit rate : 160 Kbps
Channel(s) : 2 channels
Channel positions : Front: L R
Sampling rate : 48.0 KHz
Bit depth : 16 bits
Stream size : 117 MiB (11%)
Alignment : Aligned on interleaves
Interleave, duration : 40 ms (1.00 video frame)
Interleave, preload duration : 512 ms


Plot:
To protect his brother-in-law from a drug lord, a former smuggler heads to Panama to score millions of dollars in counterfeit bills.
 
http://img846.imageshack.us/img846/3812/vlcsnap2012011720h21m52.png 
http://img80.imageshack.us/img80/6536/vlcsnap2012011720h22m40.png 
http://img809.imageshack.us/img809/4753/vlcsnap2012011720h23m55.png 
http://img705.imageshack.us/img705/9701/vlcsnap2012011720h26m11.png 
http://img214.imageshack.us/img214/9716/vlcsnap2012011720h24m15.png